<svg width="253" height="275" viewBox="0 0 253 275" fill="none" xmlns="http://www.w3.org/2000/svg">
<path d="M234.795 155.291C244.801 192.634 222.64 231.018 185.298 241.023L127.342 256.553C89.9996 266.559 51.616 244.398 41.6101 207.055L26.081 149.1C16.075 111.757 38.2358 73.3733 75.5784 63.3674L133.534 47.8383C170.877 37.8324 209.26 59.9931 219.266 97.3358L234.795 155.291Z" fill="#2CB26F"/>
<path d="M228.325 131.143C238.331 168.486 216.17 206.869 178.827 216.875L120.872 232.404C83.5291 242.41 45.1455 220.25 35.1396 182.907L26.081 149.1C16.075 111.757 38.2358 73.3733 75.5784 63.3674L133.534 47.8383C170.877 37.8324 209.26 59.9931 219.266 97.3358L228.325 131.143Z" fill="url(#paint0_linear_168_2)"/>
<path d="M179.252 141.186C184.255 159.858 173.175 179.049 154.503 184.052L125.525 191.817C106.854 196.82 87.6624 185.74 82.6594 167.068L74.8948 138.09C69.8919 119.419 80.9723 100.227 99.6436 95.2244L128.621 87.4599C147.293 82.4569 166.484 93.5373 171.487 112.209L179.252 141.186Z" fill="#2CB26F"/>
<path d="M179.252 141.186C184.255 159.858 173.175 179.049 154.503 184.052L125.525 191.817C106.854 196.82 87.6624 185.74 82.6594 167.068L81.3653 162.239C76.3623 143.567 87.4427 124.375 106.114 119.373L135.092 111.608C153.763 106.605 172.955 117.685 177.958 136.357L179.252 141.186Z" fill="#0A3333"/>
<path d="M125.504 169.4C112.016 173.014 98.1511 165.009 94.5368 151.521C93.9456 149.314 93.6653 147.098 93.669 144.918L93.669 51.6217L163.789 51.6217L163.789 139.621C163.849 150.838 156.385 161.125 145.042 164.164L125.504 169.4Z" fill="url(#paint1_linear_168_2)"/>
<path d="M163.832 51.6215C163.832 65.4286 148.162 76.6215 128.832 76.6215C109.502 76.6215 93.8324 65.4286 93.8324 51.6215C93.8324 37.8144 109.502 26.6215 128.832 26.6215C148.162 26.6215 163.832 37.8144 163.832 51.6215Z" fill="#B2B262"/>
<defs>
<linearGradient id="paint0_linear_168_2" x1="104.556" y1="55.6029" x2="149.85" y2="224.64" gradientUnits="userSpaceOnUse">
<stop stop-color="#4CFFA6"/>
<stop offset="1" stop-color="#00FF80"/>
</linearGradient>
<linearGradient id="paint1_linear_168_2" x1="130" y1="97.6217" x2="130" y2="162.622" gradientUnits="userSpaceOnUse">
<stop stop-color="#FFFF8C"/>
<stop offset="1" stop-color="#FFFF66"/>
</linearGradient>
</defs>
</svg>
