<svg width="253" height="275" viewBox="0 0 253 275" fill="none" xmlns="http://www.w3.org/2000/svg">
<path d="M234.795 155.291C244.801 192.634 222.64 231.018 185.298 241.024L127.342 256.553C89.9996 266.559 51.616 244.398 41.6101 207.055L26.081 149.1C16.075 111.757 38.2358 73.3735 75.5784 63.3675L133.534 47.8384C170.877 37.8325 209.26 59.9933 219.266 97.3359L234.795 155.291Z" fill="#125959"/>
<path d="M228.325 131.143C238.331 168.486 216.17 206.869 178.827 216.875L120.872 232.405C83.5291 242.41 45.1455 220.25 35.1396 182.907L26.081 149.1C16.075 111.757 38.2358 73.3735 75.5784 63.3675L133.534 47.8384C170.877 37.8325 209.26 59.9933 219.266 97.3359L228.325 131.143Z" fill="#0B7373"/>
<path d="M179.252 141.186C184.255 159.858 173.175 179.05 154.503 184.053L125.525 191.817C106.854 196.82 87.6624 185.74 82.6594 167.068L74.8948 138.091C69.8919 119.419 80.9723 100.228 99.6436 95.2246L128.621 87.46C147.293 82.457 166.484 93.5374 171.487 112.209L179.252 141.186Z" fill="#125959"/>
<path d="M179.252 141.186C184.255 159.858 173.175 179.05 154.503 184.052L125.525 191.817C106.854 196.82 87.6624 185.74 82.6594 167.068L81.3653 162.239C76.3623 143.567 87.4427 124.376 106.114 119.373L135.092 111.608C153.763 106.605 172.955 117.685 177.958 136.357L179.252 141.186Z" fill="#262626"/>
<path d="M125.504 170.603C112.015 174.218 98.1509 166.213 94.5366 152.724C93.9454 150.518 93.6651 148.302 93.6688 146.122L93.6688 51.6215L163.789 51.6215L163.789 140.825C163.849 152.042 156.385 162.329 145.042 165.368L125.504 170.603Z" fill="#B2B262"/>
<path d="M125.504 155.604C112.015 159.218 98.1508 151.213 94.5366 137.725C93.9454 135.518 93.6651 133.302 93.6688 131.122L93.6689 51.6218L163.789 51.6217L163.789 125.825C163.849 137.042 156.385 147.329 145.042 150.368L125.504 155.604Z" fill="#FFFF8C"/>
<path d="M163.832 51.6215C163.832 65.4286 148.162 76.6215 128.832 76.6215C109.502 76.6215 93.8324 65.4286 93.8324 51.6215C93.8324 37.8144 109.502 26.6215 128.832 26.6215C148.162 26.6215 163.832 37.8144 163.832 51.6215Z" fill="#B2B262"/>
</svg>
